<svg width="278" height="432" viewBox="0 0 278 432" fill="none" xmlns="http://www.w3.org/2000/svg">
<path d="M100.881 5.25188C100.881 5.25188 79.4851 -2.37461 65.7305 28.1313C51.9759 58.6373 30.5798 92.1938 30.5798 92.1938L42.8061 95.2444C42.8061 95.2444 45.8628 73.8903 53.5042 70.8397L50.4476 98.295C50.4476 98.295 142.145 130.326 183.409 95.2444L181.881 84.5674C181.881 84.5674 187.994 86.0927 187.994 95.2444L192.579 90.6685C192.579 90.6685 187.994 81.5168 174.239 69.3144C165.211 61.3053 162.109 46.068 161.043 36.5415C160.244 28.5867 157.055 21.0585 151.894 14.9443C142.754 4.37154 126.098 -6.86576 100.881 5.25188Z" fill="#2F2E41"/>
<path d="M230.741 177.873C230.741 177.873 271.004 212.148 276.925 232.24C282.846 252.332 254.425 254.696 254.425 254.696L192.846 260.605C192.846 260.605 191.662 288.97 181.004 292.516C170.346 296.062 178.841 245.61 178.841 245.61L239.03 228.694L211.794 200.329L230.741 177.873Z" fill="#FBBEBE"/>
<path d="M42.4527 213.33L37.7159 275.97L11.6634 382.339C11.6634 382.339 -12.0206 430.796 8.11082 431.978C28.2422 433.16 27.0581 385.885 27.0581 385.885L64.9525 285.425L68.5051 216.876L42.4527 213.33Z" fill="#FBBEBE"/>
<path d="M108.768 103.415C130.351 103.415 147.847 85.9529 147.847 64.4126C147.847 42.8723 130.351 25.4105 108.768 25.4105C87.1854 25.4105 69.6893 42.8723 69.6893 64.4126C69.6893 85.9529 87.1854 103.415 108.768 103.415Z" fill="#FBBEBE"/>
<path d="M91.0049 83.3227C91.0049 83.3227 105.215 134.144 82.7155 147.144C60.2156 160.145 139.557 169.6 160.873 130.598C160.873 130.598 122.978 117.597 133.636 83.3227H91.0049Z" fill="#FBBEBE"/>
<path d="M63.7683 153.054L56.6631 150.69C56.6631 150.69 42.4527 156.599 42.4527 167.236C42.4527 177.873 40.0842 220.421 40.0842 220.421L72.0577 223.967L63.7683 153.054Z" fill="#8D76BE"/>
<path d="M202.938 388.723C159.222 395.186 95.5072 400.405 29.4302 391.335C29.4248 390.683 29.4248 390.048 29.4248 389.429C29.4248 385.741 29.5663 382.095 29.8493 378.49C33.2342 334.105 56.1451 297.101 65.0102 284.277C65.4564 283.626 65.87 283.039 66.24 282.518C67.6713 280.514 68.5039 279.454 68.5039 279.454C68.5039 279.454 137.188 278.336 172.713 292.517C174.426 293.234 175.994 294.258 177.339 295.537C190.585 307.736 198.367 347.341 202.938 388.723Z" fill="#2F2E41"/>
<path d="M177.452 136.507C177.452 136.507 192.846 128.234 208.241 145.963L239.03 181.419L215.346 207.42L170.346 180.237L177.452 136.507Z" fill="#8D76BE"/>
<path d="M66.5401 64.6599C80.3743 54.6675 91.5727 43.1584 98.9805 29.4677C98.9805 29.4677 124.369 57.6215 139.884 59.0292C155.399 60.4369 141.294 25.2446 141.294 25.2446L113.085 18.2062L86.2864 21.0216L65.1296 35.0984L66.5401 64.6599Z" fill="#2F2E41"/>
<path d="M154.952 128.234C154.952 128.234 138.38 154.385 88.6399 141.901L60.4145 149.659L56.6631 150.69C56.6631 150.69 60.2157 221.603 69.6893 234.604C79.1629 247.604 76.7945 254.696 74.4261 255.878C72.0577 257.06 66.1367 254.696 69.6893 260.605C73.2419 266.515 77.9787 262.969 73.2419 266.515C68.5051 270.06 66.1367 283.061 66.1367 283.061L177.452 297.244C177.452 297.244 173.899 251.15 183.373 227.512C192.846 203.875 195.215 194.42 195.215 194.42L188.109 135.326L154.952 128.234Z" fill="#8D76BE"/>
</svg>
