<svg width="230" height="493" viewBox="0 0 230 493" fill="none" xmlns="http://www.w3.org/2000/svg">
<path d="M39.8605 155.111C40.2653 155.53 40.6367 155.981 40.9712 156.459L92.9961 155.177L99.0653 144L117 151.026L108.164 171.864C107.45 173.548 106.213 174.953 104.64 175.868C103.066 176.783 101.241 177.158 99.4374 176.939L40.6589 169.783C39.2724 171.552 37.3843 172.854 35.2459 173.515C33.1074 174.176 30.8198 174.165 28.6875 173.484C26.5552 172.803 24.6791 171.484 23.3088 169.703C21.9385 167.921 21.139 165.761 21.0165 163.51C20.8941 161.259 21.4544 159.024 22.6232 157.102C23.792 155.18 25.5137 153.662 27.5594 152.75C29.6051 151.839 31.8777 151.576 34.0751 151.998C36.2725 152.419 38.2904 153.505 39.8605 155.111Z" fill="#FFB7B7"/>
<path d="M210.997 476L194.058 475.999L186 409L211 409.001L210.997 476Z" fill="#FFB7B7"/>
<path d="M215.999 493L160 492.998V492.274C160 486.367 162.297 480.701 166.384 476.524C170.472 472.347 176.016 470 181.796 470H181.798L216 470.001L215.999 493Z" fill="#2F2E41"/>
<path d="M53.8619 476L38 469.145L56.5897 404L80 414.116L53.8619 476Z" fill="#FFB7B7"/>
<path d="M51.208 493L0 470.93L0.27668 470.276C2.53509 464.943 6.80071 460.734 12.1353 458.574C17.4698 456.414 23.4364 456.48 28.7227 458.757L28.7239 458.758L60 472.238L51.208 493Z" fill="#2F2E41"/>
<path d="M127.254 169.602L126 190.675L162.651 194.743L201 199L189.713 167L127.254 169.602Z" fill="#FFB7B7"/>
<path d="M125.719 177L111 91.8142L135.628 83.8224L142.862 74L178.062 76.0625L183.23 87.5245L202 96.3061L199.115 149.349L194.053 174.02L193.429 173.7C168.054 160.689 126.742 176.601 126.327 176.762L125.719 177Z" fill="#2F2E41"/>
<path d="M116.185 164L91 154.019L91.1073 153.575C91.2155 153.127 101.935 108.757 103.358 101.627C104.841 94.1988 110.257 92.145 110.487 92.0614L110.656 92L120.623 95.005L125 129.074L116.185 164Z" fill="#2F2E41"/>
<path d="M67.4286 464L34 457.129L87.4285 309.401L105.714 259.013C105.714 259.013 117.312 218.612 122.552 202.978L125.714 182L200.571 190.303C200.571 190.303 221.479 221.069 215.127 271.218L218 459.706L184.571 461.423L156.571 271.324L107.429 375.535C107.429 375.535 91.9393 420.006 80.8571 429.645L67.4286 464Z" fill="#2F2E41"/>
<path d="M169.826 197.798C170.415 197.784 171.003 197.816 171.587 197.894L206.499 158.566L202.438 146.479L219.982 138L229.263 158.703C230.013 160.376 230.196 162.245 229.787 164.031C229.377 165.816 228.396 167.421 226.991 168.605L181.2 207.187C181.549 209.414 181.208 211.695 180.222 213.726C179.235 215.756 177.651 217.44 175.679 218.553C173.707 219.666 171.441 220.156 169.182 219.957C166.923 219.758 164.779 218.88 163.034 217.44C161.289 216 160.027 214.065 159.415 211.894C158.802 209.723 158.869 207.418 159.607 205.286C160.344 203.154 161.717 201.295 163.542 199.958C165.368 198.62 167.56 197.867 169.826 197.798H169.826Z" fill="#FFB7B7"/>
<path d="M204.566 162L190 127.813L195.681 104L201.802 96.2833C202.251 96.092 202.734 95.9956 203.221 96.0002C203.709 96.0047 204.19 96.1101 204.635 96.3097C206.893 97.2164 208.815 99.9948 210.349 104.568L224 143.366L204.566 162Z" fill="#2F2E41"/>
<path d="M128 60.3572V34.5635C128 25.3967 131.688 16.6053 138.251 10.1234C144.815 3.64152 153.717 0 163 0C172.283 0 181.185 3.64152 187.749 10.1234C194.312 16.6053 198 25.3967 198 34.5635V60.3572C197.999 61.5881 197.503 62.7682 196.621 63.6386C195.74 64.509 194.545 64.9986 193.299 65H132.702C131.455 64.9986 130.26 64.509 129.379 63.6386C128.497 62.7682 128.001 61.5881 128 60.3572Z" fill="#2F2E41"/>
<path d="M156 65C169.807 65 181 53.5833 181 39.5C181 25.4167 169.807 14 156 14C142.193 14 131 25.4167 131 39.5C131 53.5833 142.193 65 156 65Z" fill="#FFB7B7"/>
<path d="M120 36.5C120.008 29.4742 122.899 22.7384 128.038 17.7704C133.178 12.8024 140.146 10.0079 147.414 10H152.586C159.855 10.0079 166.823 12.8025 171.962 17.7705C177.101 22.7385 179.992 29.4742 180 36.5V37H169.069L165.341 26.9082L164.595 37H158.946L157.065 31.9082L156.688 37H120V36.5Z" fill="#2F2E41"/>
<path d="M152.915 68.0888C152.392 67.3969 152.079 66.5747 152.013 65.717C151.947 64.8592 152.131 64.0008 152.543 63.2405C158.136 52.86 165.966 33.679 155.573 21.85L154.826 21H185V65.208L157.589 69.9276C157.311 69.9755 157.03 69.9997 156.748 70C156 70 155.263 69.8267 154.596 69.4945C153.93 69.1623 153.354 68.6805 152.915 68.0888Z" fill="#2F2E41"/>
</svg>
